<svg width="44" height="44" viewBox="0 0 44 44" fill="none" xmlns="http://www.w3.org/2000/svg">
<circle cx="22" cy="22" r="21.5" fill="#141515" stroke="white"/>
<path d="M30.317 13.575C28.761 12.8332 27.1189 12.3042 25.4319 12.0013C25.4166 11.9983 25.4007 12.0005 25.3866 12.0074C25.3725 12.0143 25.3609 12.0257 25.3534 12.0398C25.1424 12.4296 24.9087 12.938 24.7451 13.3376C22.9004 13.0507 21.0651 13.0507 19.2583 13.3376C19.0947 12.9291 18.8525 12.4296 18.6406 12.0398C18.6327 12.026 18.6211 12.0149 18.6071 12.008C18.593 12.0012 18.5774 11.9989 18.5621 12.0014C16.8749 12.3036 15.2327 12.8326 13.6769 13.5749C13.6636 13.5808 13.6524 13.5909 13.6448 13.6037C10.5334 18.4317 9.681 23.1409 10.0992 27.7918C10.1004 27.8032 10.1038 27.8142 10.1091 27.8243C10.1145 27.8343 10.1217 27.8431 10.1304 27.8501C12.1832 29.4159 14.1717 30.3665 16.1233 30.9965C16.1385 31.0012 16.1547 31.001 16.1697 30.9959C16.1848 30.9908 16.1979 30.981 16.2075 30.9679C16.6691 30.3131 17.0806 29.6226 17.4335 28.8966C17.4383 28.8867 17.4411 28.8758 17.4416 28.8647C17.4421 28.8535 17.4404 28.8424 17.4364 28.832C17.4325 28.8217 17.4265 28.8123 17.4188 28.8045C17.4111 28.7967 17.402 28.7907 17.3919 28.7868C16.7391 28.5297 16.1176 28.2161 15.5197 27.8601C15.5088 27.8534 15.4996 27.8441 15.493 27.8329C15.4864 27.8217 15.4826 27.809 15.4818 27.7959C15.4811 27.7828 15.4834 27.7697 15.4887 27.7577C15.494 27.7458 15.502 27.7354 15.5121 27.7274C15.6379 27.6295 15.7638 27.5277 15.8839 27.4248C15.8946 27.4156 15.9075 27.4098 15.9212 27.4078C15.9349 27.4059 15.9489 27.408 15.9615 27.4139C19.8893 29.2765 24.1415 29.2765 28.0229 27.4139C28.0355 27.4076 28.0496 27.4052 28.0635 27.407C28.0774 27.4087 28.0905 27.4145 28.1014 27.4237C28.2216 27.5266 28.3474 27.6295 28.4742 27.7274C28.4843 27.7353 28.4923 27.7456 28.4977 27.7575C28.503 27.7694 28.5055 27.7824 28.5048 27.7955C28.5042 27.8086 28.5005 27.8213 28.494 27.8326C28.4875 27.8438 28.4784 27.8532 28.4676 27.86C27.8695 28.2228 27.2429 28.5325 26.5946 28.7858C26.5845 28.7898 26.5754 28.796 26.5678 28.8039C26.5601 28.8118 26.5542 28.8213 26.5504 28.8318C26.5465 28.8422 26.5449 28.8534 26.5455 28.8646C26.5461 28.8758 26.5489 28.8867 26.5539 28.8966C26.9143 29.6216 27.3258 30.3121 27.7789 30.9668C27.7881 30.9803 27.8012 30.9905 27.8164 30.9958C27.8315 31.0011 27.8478 31.0014 27.8631 30.9965C29.8241 30.3664 31.8126 29.4158 33.8654 27.8501C33.8742 27.8434 33.8816 27.8348 33.887 27.8249C33.8924 27.8151 33.8957 27.8041 33.8967 27.7928C34.3971 22.4158 33.0585 17.7451 30.3482 13.6046C30.3415 13.5912 30.3305 13.5807 30.317 13.5749V13.575ZM18.02 24.9599C16.8375 24.9599 15.8631 23.8323 15.8631 22.4474C15.8631 21.0627 16.8186 19.9351 18.0201 19.9351C19.2309 19.9351 20.1958 21.0726 20.1769 22.4476C20.1769 23.8323 19.2214 24.9599 18.02 24.9599V24.9599ZM25.9948 24.9599C24.8123 24.9599 23.8379 23.8323 23.8379 22.4474C23.8379 21.0627 24.7933 19.9351 25.9948 19.9351C27.2056 19.9351 28.1705 21.0726 28.1516 22.4476C28.1516 23.8323 27.2056 24.9599 25.9948 24.9599V24.9599Z" fill="white"/>
</svg>
