<svg width="24" height="24" viewBox="0 0 25 24" fill="none" xmlns="http://www.w3.org/2000/svg">
<g clip-path="url(#clip0_107_98)">
<path d="M12.0225 17.3263C12.3186 17.6077 12.8142 17.6106 13.1103 17.3263L18.4384 12.2834C18.7391 11.9977 18.7383 11.5351 18.4384 11.25C18.1385 10.9643 17.6512 10.9643 17.3513 11.25L13.3356 15.0505V0.730853C13.3356 0.327422 12.9915 0 12.5668 0C12.142 0 11.7979 0.327422 11.7979 0.730853V15.0505L7.78221 11.25C7.48151 10.9643 6.99507 10.9643 6.69513 11.25C6.39443 11.5358 6.39443 11.9984 6.69513 12.2834L12.0225 17.3263Z" fill="black"/>
<path d="M23.9985 18C23.5778 18 23.2364 18.2688 23.2364 18.6V22.8H1.89681V18.6C1.89681 18.2688 1.55538 18 1.13469 18C0.713991 18 0.372559 18.2688 0.372559 18.6V23.4C0.372559 23.7312 0.713991 24 1.13469 24H23.9985C24.4192 24 24.7606 23.7312 24.7606 23.4V18.6C24.7606 18.2688 24.4192 18 23.9985 18Z" fill="black"/>
</g>
<defs>
<clipPath id="clip0_107_98">
<rect width="24" height="24" fill="white" transform="translate(0.372559)"/>
</clipPath>
</defs>
</svg>
