<svg width="44" height="44" viewBox="0 0 44 44" fill="none" xmlns="http://www.w3.org/2000/svg">
<circle cx="22" cy="22" r="21.5" fill="#141515" stroke="white"/>
<path d="M22 10C15.37 10 10 15.5094 10 22.3047C10 27.7423 13.438 32.3535 18.205 33.9787C18.805 34.0946 19.025 33.7142 19.025 33.3871C19.025 33.0949 19.015 32.3207 19.01 31.2953C15.672 32.0377 14.968 29.6444 14.968 29.6444C14.422 28.2243 13.633 27.8449 13.633 27.8449C12.546 27.082 13.717 27.0973 13.717 27.0973C14.922 27.1835 15.555 28.3647 15.555 28.3647C16.625 30.2463 18.364 29.7029 19.05 29.3881C19.158 28.5924 19.467 28.0499 19.81 27.7423C17.145 27.4347 14.344 26.3765 14.344 21.6618C14.344 20.3185 14.809 19.2213 15.579 18.36C15.444 18.0493 15.039 16.7983 15.684 15.1034C15.684 15.1034 16.689 14.7732 18.984 16.3646C19.944 16.0908 20.964 15.9555 21.984 15.9493C23.004 15.9555 24.024 16.0908 24.984 16.3646C27.264 14.7732 28.269 15.1034 28.269 15.1034C28.914 16.7983 28.509 18.0493 28.389 18.36C29.154 19.2213 29.619 20.3185 29.619 21.6618C29.619 26.3888 26.814 27.4296 24.144 27.7321C24.564 28.1012 24.954 28.8559 24.954 30.0084C24.954 31.6552 24.939 32.978 24.939 33.3779C24.939 33.7009 25.149 34.0854 25.764 33.9623C30.565 32.3484 34 27.7341 34 22.3047C34 15.5094 28.627 10 22 10" fill="white"/>
</svg>
