<svg width="80" height="44" viewBox="0 0 80 44" fill="none" xmlns="http://www.w3.org/2000/svg">
<path d="M21.1719 13.9219C20.8854 13.9219 20.5794 13.9674 20.2539 14.0586C19.9414 14.1497 19.6289 14.3255 19.3164 14.5859C19.0039 14.8464 18.6979 15.2109 18.3984 15.6797C18.112 16.1354 17.8581 16.7409 17.6367 17.4961C17.4284 18.2513 17.2591 19.1693 17.1289 20.25C16.9987 21.3177 16.9336 22.5938 16.9336 24.0781C16.9336 25.5495 16.9987 26.832 17.1289 27.9258C17.2591 29.0195 17.4284 29.957 17.6367 30.7383C17.8581 31.5195 18.112 32.1641 18.3984 32.6719C18.6979 33.1667 19.0039 33.5573 19.3164 33.8438C19.6289 34.1302 19.9414 34.332 20.2539 34.4492C20.5794 34.5534 20.8854 34.6055 21.1719 34.6055C21.5625 34.6055 21.9271 34.5208 22.2656 34.3516V26.8711C22.2656 26.6628 22.3112 26.4609 22.4023 26.2656C22.4935 26.0573 22.7083 25.9531 23.0469 25.9531H25.0977C25.2148 25.9531 25.332 25.9596 25.4492 25.9727C25.5664 25.9857 25.6706 26.0247 25.7617 26.0898C25.8529 26.1419 25.9245 26.2331 25.9766 26.3633C26.0286 26.4805 26.0547 26.6497 26.0547 26.8711V38.082C26.0547 38.3034 26.0286 38.4792 25.9766 38.6094C25.9245 38.7266 25.8529 38.8177 25.7617 38.8828C25.6706 38.9349 25.5664 38.9674 25.4492 38.9805C25.332 38.9935 25.2148 39 25.0977 39H23.0469C22.8776 39 22.7409 38.974 22.6367 38.9219C22.5456 38.8698 22.4674 38.7982 22.4023 38.707C22.3503 38.6159 22.3112 38.5182 22.2852 38.4141C22.2721 38.2969 22.2656 38.1862 22.2656 38.082V37.5156C21.849 37.8151 21.3867 38.1016 20.8789 38.375C20.3711 38.6484 19.8112 38.8893 19.1992 39.0977C18.6003 39.306 17.9492 39.4688 17.2461 39.5859C16.543 39.7031 15.7878 39.7617 14.9805 39.7617C14.0299 39.7617 13.0534 39.6771 12.0508 39.5078C11.0482 39.3385 10.0716 39.0391 9.12109 38.6094C8.18359 38.1667 7.29167 37.5677 6.44531 36.8125C5.59896 36.0573 4.85677 35.1003 4.21875 33.9414C3.59375 32.7826 3.09245 31.3958 2.71484 29.7812C2.35026 28.1536 2.16797 26.2526 2.16797 24.0781C2.16797 22.2292 2.35026 20.6016 2.71484 19.1953C3.09245 17.776 3.60026 16.5456 4.23828 15.5039C4.8763 14.4622 5.61849 13.5898 6.46484 12.8867C7.32422 12.1836 8.23568 11.6237 9.19922 11.207C10.1628 10.7773 11.1523 10.4779 12.168 10.3086C13.1966 10.1263 14.1992 10.0352 15.1758 10.0352C16.2435 10.0352 17.2591 10.1198 18.2227 10.2891C19.1862 10.4583 20.0651 10.6732 20.8594 10.9336C21.6667 11.194 22.3828 11.487 23.0078 11.8125C23.6328 12.138 24.1471 12.457 24.5508 12.7695C24.5898 12.8086 24.6354 12.8542 24.6875 12.9062C24.7396 12.9453 24.7656 12.9974 24.7656 13.0625C24.7656 13.1146 24.7461 13.1797 24.707 13.2578L23.8672 14.5859C23.7891 14.7031 23.6979 14.7617 23.5938 14.7617C23.5156 14.7617 23.4049 14.7227 23.2617 14.6445C23.1315 14.5534 22.9622 14.4557 22.7539 14.3516C22.5456 14.2344 22.3112 14.1367 22.0508 14.0586C21.7904 13.9674 21.4974 13.9219 21.1719 13.9219ZM29.2578 21.7148C29.2578 21.2721 29.2969 20.8815 29.375 20.543C29.4531 20.1914 29.6029 19.9049 29.8242 19.6836C30.0456 19.4622 30.3516 19.293 30.7422 19.1758C31.1328 19.0586 31.6406 19 32.2656 19H40.2539C40.8398 19 41.3411 19.0586 41.7578 19.1758C42.1875 19.293 42.4935 19.4948 42.6758 19.7812C42.8451 19.6641 43.0469 19.5404 43.2812 19.4102C43.5286 19.2669 43.7956 19.1367 44.082 19.0195C44.3685 18.9023 44.6745 18.8047 45 18.7266C45.3255 18.6484 45.6641 18.6094 46.0156 18.6094C47.2656 18.6094 48.2357 19.0391 48.9258 19.8984C49.6289 20.7578 49.9805 22.0208 49.9805 23.6875V38.082C49.9805 38.3034 49.9479 38.4792 49.8828 38.6094C49.8307 38.7266 49.7591 38.8177 49.668 38.8828C49.5898 38.9349 49.4922 38.9674 49.375 38.9805C49.2578 38.9935 49.1406 39 49.0234 39H47.7734C47.4349 39 47.2135 38.9023 47.1094 38.707C47.0182 38.5117 46.9727 38.3034 46.9727 38.082V23.4922C46.9727 22.75 46.8359 22.1836 46.5625 21.793C46.3021 21.4023 45.8789 21.207 45.293 21.207C44.9935 21.207 44.6875 21.2917 44.375 21.4609C44.0755 21.6172 43.8346 21.7865 43.6523 21.9688V36.2656C43.6523 36.7214 43.6133 37.1185 43.5352 37.457C43.457 37.7956 43.3073 38.082 43.0859 38.3164C42.8646 38.5378 42.5586 38.707 42.168 38.8242C41.7773 38.9414 41.2695 39 40.6445 39H32.2656C31.6406 39 31.1328 38.9414 30.7422 38.8242C30.3516 38.707 30.0456 38.5378 29.8242 38.3164C29.6029 38.0951 29.4531 37.8151 29.375 37.4766C29.2969 37.138 29.2578 36.7409 29.2578 36.2852V21.7148ZM53.5938 13.6875C53.5938 13.2318 53.6328 12.8346 53.7109 12.4961C53.7891 12.1576 53.9388 11.8776 54.1602 11.6562C54.3815 11.4219 54.6875 11.2461 55.0781 11.1289C55.4688 11.0117 55.9766 10.9531 56.6016 10.9531H65.9961C66.9727 10.9531 67.9427 11.0247 68.9062 11.168C69.8698 11.2982 70.7878 11.5391 71.6602 11.8906C72.5326 12.2422 73.3398 12.7305 74.082 13.3555C74.8372 13.9674 75.4883 14.7617 76.0352 15.7383C76.582 16.7148 77.0117 17.8867 77.3242 19.2539C77.6367 20.6211 77.793 22.2292 77.793 24.0781C77.793 26.2526 77.6237 28.1341 77.2852 29.7227C76.9596 31.2982 76.5104 32.6393 75.9375 33.7461C75.3776 34.8529 74.707 35.7513 73.9258 36.4414C73.1576 37.1185 72.3242 37.6523 71.4258 38.043C70.5404 38.4206 69.6159 38.6745 68.6523 38.8047C67.7018 38.9349 66.7513 39 65.8008 39H56.6016C55.9766 39 55.4688 38.9414 55.0781 38.8242C54.6875 38.707 54.3815 38.5378 54.1602 38.3164C53.9388 38.0951 53.7891 37.8151 53.7109 37.4766C53.6328 37.138 53.5938 36.7409 53.5938 36.2852V13.6875ZM75.0391 24.4883C75.0391 22.8737 74.9089 21.4023 74.6484 20.0742C74.388 18.7461 73.9779 17.6133 73.418 16.6758C72.8581 15.7383 72.1419 15.0091 71.2695 14.4883C70.4102 13.9674 69.375 13.7005 68.1641 13.6875V36.2852C69.375 36.2721 70.4167 35.9596 71.2891 35.3477C72.1615 34.7227 72.8711 33.8763 73.418 32.8086C73.9779 31.7409 74.388 30.4974 74.6484 29.0781C74.9089 27.6458 75.0391 26.1159 75.0391 24.4883Z" fill="#1FC1A4" fill-opacity="0.63"/>
<path d="M50.4793 0L52.0187 3.99783H57L52.97 6.46863L54.5093 10.4665L50.4793 7.99566L43 18L47.9887 6.46863L43.9587 3.99783H48.94L50.4793 0Z" fill="#F7EE1E"/>
</svg>
